<?xml version="1.0" encoding="utf-8"?>
<!-- Generator: Adobe Illustrator 27.2.0, SVG Export Plug-In . SVG Version: 6.00 Build 0)  -->
<svg version="1.1" id="Layer_1" xmlns="http://www.w3.org/2000/svg" xmlns:xlink="http://www.w3.org/1999/xlink" x="0px" y="0px"
	 viewBox="0 0 448 512" style="enable-background:new 0 0 448 512;" xml:space="preserve">
<style type="text/css">
	.st0{fill:#FFFFFF;}
</style>
<path class="st0" d="M211.8,339.8c-10.9,10.9-28.7,10.9-39.6,0l-64-64c-10.9-10.9-10.9-28.7,0-39.6c10.9-10.9,28.7-10.9,39.6,0
	l44.2,44.2l108.2-108.2c10.9-10.9,28.7-10.9,39.6,0c10.9,10.9,10.9,28.7,0,39.6L211.8,339.8z M0,96c0-35.3,28.6-64,64-64h320
	c35.3,0,64,28.7,64,64v320c0,35.3-28.7,64-64,64H64c-35.3,0-64-28.7-64-64V96z M48,96v320c0,8.8,7.2,16,16,16h320
	c8.8,0,16-7.2,16-16V96c0-8.8-7.2-16-16-16H64C55.2,80,48,87.2,48,96z"/>
</svg>
